# xmcd
#
# Track frame offsets: 
#        150
#        17739
#        30902
#        47818
#        63938
#        77638
#        101842
#
# Disc length: 1552 seconds
#
# Revision: 0
# Processed by: cddbd v1.5.2PL0 Copyright (c) Steve Scherf et al.
# Submitted via: ExactAudioCopy v1.3
#
DISCID=4c060e07
DTITLE=Billy The Kid - She Got A Hold On Me
DYEAR=2012
DGENRE=Electric Blues
TTITLE0=Nothing To Lose
TTITLE1=Say You Wanna Woman
TTITLE2=Born Under A Bad Sign
TTITLE3=She Got A Hold On Me
TTITLE4=Disturbed By The Peace
TTITLE5=Free From Your Spell
TTITLE6=One More Chance
EXTD=
EXTT0=
EXTT1=
EXTT2=
EXTT3=
EXTT4=
EXTT5=
EXTT6=
PLAYORDER=
